/* XPM */
static char *_aafc5a91b3b465dcf1f4d469ef6ca6e[] = {
/* columns rows colors chars-per-pixel */
"128 128 25 1 ",
"  c gray30",
". c #545353",
"X c #555454",
"o c #5B5B5B",
"O c #5C5B5B",
"+ c #636262",
"@ c #646363",
"# c #6C6A6A",
"$ c #737171",
"% c #7B7878",
"& c #838080",
"* c #8A8787",
"= c #938F8F",
"- c #9B9797",
"; c #A39E9E",
": c #ABA5A5",
"> c #B2ACAC",
", c #BAB4B4",
"< c #C2BCBC",
"1 c #C9C2C2",
"2 c #C9C3C3",
"3 c #CAC2C2",
"4 c #CAC3C3",
"5 c #CBC3C3",
"6 c None",
/* pixels */
"66666666666666666666666666666666666666666666666666666666666666666666666666666666666666666666666666666666666666666666666666666666",
"66666666666666666666666666666666666666666666666666666666666666666666666666666666666666666666666666666666666666666666666666666666",
"66666666666666666666666666666666666666666666666666666666666666666666666666666666666666666666666666666666666666666666666666666666",
"66666666666666666666666666666666666666666666666666666666666666666666666666666666666666666666666666666666666666666666666666666666",
"66666666666666666666666666666666666666666666666666666666666666666666666666666666666666666666666666666666666666666666666666666666",
"66666666666666666666666666666666666666666666666666666666666666666666666666666666666666666666666666666666666666666666666666666666",
"66666666666666666666666666666666666666666666666666666666666666666666666666666666666666666666666666666666666666666666666666666666",
"66666666666666666666666666666666666666666666666666666666666666666666666666666666666666666666666666666666666666666666666666666666",
"66666666666666666666666666666666666666666666666666666666666666666666666666666666666666666666666666666666666666666666666666666666",
"66666666666666666666666666666666666666666666666666666666666666666666666666666666666666666666666666666666666666666666666666666666",
"66666666666666666666666666666666666666666666666666666666666666666666666666666666666666666666666666666666666666666666666666666666",
"66666666666666666666666666666666666666666666666666666666666666666666666666666666666666666666666666666666666666666666666666666666",
"66666666666666666666666666666666666666666666666666666666666666666666666666666666666666666666666666666666666666666666666666666666",
"66666666666666666666666666666666666666666666666666666666666666666666666666666666666666666666666666666666666666666666666666666666",
"66666666666666666666666666666666666666666666666666666666666666666666666666666666666666666666666666666666666666666666666666666666",
"66666666666666666666666666666666666666666666666666666666666666666666666666666666666666666666666666666666666666666666666666666666",
"66666666666666666666666666666666666666666666666666666666666666666666666666666666666666666666666666666666666666666666666666666666",
"66666666666666666666666666666666666666666666666666666666666666666666666666666666666666666666666666666666666666666666666666666666",
"66666666666666666666666666666666666666666666666666666666666666666666666666666666666666666666666666666666666666666666666666666666",
"66666666666666666666666666666666666666666666666666666666666666666666666666666666666666666666666666666666666666666666666666666666",
"66666666666666666666666666666666666666666666666666666666666666666666666666666666666666666666666666666666666666666666666666666666",
"66666666666666666666666666666666666666666666666666666666666666666666666666666666666666666666666666666666666666666666666666666666",
"66666666666666666666666666666666666666666666666666666666666666666666666666666666666666666666666666666666666666666666666666666666",
"66666666666666666666666666666666666666666666666666666666666666666666666666666666666666666666666666666666666666666666666666666666",
"66666666666666666666666666666666666666666666666666666666666666666666666666666666666666666666666666666666666666666666666666666666",
"66666666666666666666666666666666666666666666666666666666666666666666666666666666666666666666666666666666666666666666666666666666",
"66666666666666666666666666666666666666666666666666666666666666666666666666666666666666666666666666666666666666666666666666666666",
"66666666666666666666666666666666666666666666666666666666666666666666666666666666666666666666666666666666666666666666666666666666",
"66666666666666666666666666666666666666666666666666666666666666666666666666666666666666666666666666666666666666666666666666666666",
"66666666666666666666666666666666666666666666666666666666666666666666666666666666666666666666666666666666666666666666666666666666",
"66666666666666666666666666666666666666666666666666666666666666666666666666666666666666666666666666666666666666666666666666666666",
"66666666666666666666666666666666666666666666666666666666666666666666666666666666666666666666666666666666666666666666666666666666",
"66666666666666666666666666666666666666115525252552525252525252525252525252525252525252521166666666666666666666666666666666666666",
"66666666666666666666666666666666666125555552525225252525252525252525252525252525252525255555166666666666666666666666666666666666",
"66666666666666666666666666666666661552522525252552525252525252525252525252525252525252525552556666666666666666666666666666666666",
"66666666666666666666666666666666655525255252525225252525252525252525252525252525252525252525551666666666666666666666666666666666",
"66666666666666666666666666666666615252522525252552525252525252525252525252525252525252525252252666666666666666666666666666666666",
"66666666666666666666666666666666552525255252525225252525252525252525252525252525252525252525522566666666666666666666666666666666",
"66666666666666666666666666666666555252522525252552525252525252525252525252525252525252525252252266666666666666666666666666666666",
"66666666666666666666666666666666152525255252525225252525252525252525252525252525252525252525525566666666666666666666666666666666",
"66666666666666666666666666666666252525252525252552525252525252525252525252525252525252525252525266666666666666666666666666666666",
"66666666666666666666666666666666525252525252525225252525252525252525252525252525252525252525252566666666666666666666666666666666",
"66666666666666666666666666666666252525252525252552525252525252525252525252525252525252525252525266666666666666666666666666666666",
"66666666666666666666666666666666525252525252525225252525252525252525252525252525252525252525252566666666666666666666666666666666",
"66666666666666666666666666666666252525252525252552525252525252525252525252525252525252525252525266666666666666666666666666666666",
"66666666666666666666666666666666525252525252525225252525252525252525252525252525252525252525252566666666666666666666666666666666",
"66666666666666666666666666666666252525252525252552525252525252525252525252525252525252525252525266666666666666666666666666666666",
"666666666666666666666666666666665252525252525252252525252525<.     <252525252525252525252525252566666666666666666666666666666666",
"666666666666666666666666666666662525252525252525252525252525-      =252525252525525252525252525266666666666666666666666666666666",
"666666666666666666666666666666665252525252525252525252525252@      o525252525252252525252525252566666666666666666666666666666666",
"66666666666666666666666666666666252525252525252525252525255,        >52525252525525252525252525266666666666666666666666666666666",
"66666666666666666666666666666666525252525252525252525252525&        %25252525252252525252525252566666666666666666666666666666666",
"66666666666666666666666666666666252525252525252525252525252.        .<2525252525525252525252525266666666666666666666666666666666",
"6666666666666666666666666666666652525252525252525252525252-          -5252525252252525252525252566666666666666666666666666666666",
"6666666666666666666666666666666625252525252525252525252525#          @5525252525525252525252525266666666666666666666666666666666",
"666666666666666666666666666666665252525252525252525252525,            >552525252252525252525252566666666666666666666666666666666",
"666666666666666666666666666666662525252525252525252525252&            &525252525525252525252525266666666666666666666666666666666",
"666666666666666666666666666666665252525252525252525252525.            .252525252252525252525252566666666666666666666666666666666",
"66666666666666666666666666666666252525252525252525252525;              -25252525525252525252525266666666666666666666666666666666",
"66666666666666666666666666666666525252525252525252525252$      oo      #52525252252525252525252566666666666666666666666666666666",
"6666666666666666666666666666666625252525252525252525255,       &*       ,5252525525252525252525266666666666666666666666666666666",
"6666666666666666666666666666666652525252525252525252525*       ,,       &2525252252525252525252566666666666666666666666666666666",
"6666666666666666666666666666666625252525252525252525252o      +25#      o5252525525252525252525566666666666666666666666666666666",
"666666666666666666666666666666665252525252525252525252;       -52-       ;525252252525252525255566666666666666666666666666666666",
"666666666666666666666666666666665252525252525252252552$       @##@       $525252525252525252525266666666666666666666666666666666",
"66666666666666666666666666666666252525252525252552522,                    ,22525252525252525252566666666666666666666666666666666",
"66666666666666666666666666666666525252525252525225255=                    *55252525252525252525266666666666666666666666666666666",
"66666666666666666666666666666666252525252525252552525o                    o52525252525252525252566666666666666666666666666666666",
"6666666666666666666666666666666652525252525252522525:                      ;5252525252525252525266666666666666666666666666666666",
"6666666666666666666666666666666625252525252525255252%                      %2525252525252525252566666666666666666666666666666666",
"666666666666666666666666666666665252525252525252252<                        <252525252525252525266666666666666666666666666666666",
"666666666666666666666666666666662525252525252525525=       %********$       =525252525252525252566666666666666666666666666666666",
"666666666666666666666666666666665252525252525252255o      .525255252,       o552525252525252525266666666666666666666666666666666",
"66666666666666666666666666666666252525252525252552:       &2525225255%       :25252525252525252566666666666666666666666666666666",
"66666666666666666666666666666666525252525252525225%       ,2252552525>       %52525252525252525266666666666666666666666666666666",
"6666666666666666666666666666666625252525252525255,o      #555252252522o      o,5252525252525252566666666666666666666666666666666",
"6666666666666666666666666666666652525252525252525-       -522525525225*       -5525252525252525266666666666666666666666666666666",
"6666666666666666666666666666666625252525252525252@      o,255252252552,       @5252525252525252566666666666666666666666666666666",
"666666666666666666666666666666665252525252525252>       %52525255252252$       >525252525252525266666666666666666666666666666666",
"666666666666666666666666666666662525252525252525%       >25252522525525;       %252525252525252566666666666666666666666666666666",
"66666666666666666666666666666666525252525252525,.      o2525252552525252o      .552525255252525266666666666666666666666666666666",
"66666666666666666666666666666666252525252525255525555252525252522525252525522525525252522525252566666666666666666666666666666666",
"66666666666666666666666666666666525252525252255552522525252525255252525252525252252525255252525266666666666666666666666666666666",
"66666666666666666666666666666666252525252525555525255252525252522525252525252525525252522525252566666666666666666666666666666666",
"66666666666666666666666666666666525252522525252552525252252525255252525252525252252525255252525266666666666666666666666666666666",
"66666666666666666666666666666666252525255252525225252525525252522525252525252525525252522525252566666666666666666666666666666666",
"66666666666666666666666666666666525252522525252552525252252525255252525252525252252525255252525266666666666666666666666666666666",
"66666666666666666666666666666666252525255252525225252525525252522525252525252525525252522525252566666666666666666666666666666666",
"66666666666666666666666666666666252525252525252552525252525252525252525252525252252525252525252266666666666666666666666666666666",
"66666666666666666666666666666666225252525252525225252525252525252525252525252525525252525252525266666666666666666666666666666666",
"66666666666666666666666666666666552525252525252552525252525252525252525252525252252525252525255566666666666666666666666666666666",
"66666666666666666666666666666666625252525252525225252525252525252525252525252525525252525252555666666666666666666666666666666666",
"66666666666666666666666666666666655525252525252552525252525252525252525252525252252525252552525666666666666666666666666666666666",
"66666666666666666666666666666666662555525252525225252525252525252525252525252525525252525255256666666666666666666666666666666666",
"66666666666666666666666666666666666555252525252552525252525252555252525252525252252525252525266666666666666666666666666666666666",
"66666666666666666666666666666666666666525252525225252525252525552525252525252525525252525266666666666666666666666666666666666666",
"66666666666666666666666666666666666666666666666666666666666666666666666666666666666666666666666666666666666666666666666666666666",
"66666666666666666666666666666666666666666666666666666666666666666666666666666666666666666666666666666666666666666666666666666666",
"66666666666666666666666666666666666666666666666666666666666666666666666666666666666666666666666666666666666666666666666666666666",
"66666666666666666666666666666666666666666666666666666666666666666666666666666666666666666666666666666666666666666666666666666666",
"66666666666666666666666666666666666666666666666666666666666666666666666666666666666666666666666666666666666666666666666666666666",
"66666666666666666666666666666666666666666666666666666666666666666666666666666666666666666666666666666666666666666666666666666666",
"66666666666666666666666666666666666666666666666666666666666666666666666666666666666666666666666666666666666666666666666666666666",
"66666666666666666666666666666666666666666666666666666666666666666666666666666666666666666666666666666666666666666666666666666666",
"66666666666666666666666666666666666666666666666666666666666666666666666666666666666666666666666666666666666666666666666666666666",
"66666666666666666666666666666666666666666666666666666666666666666666666666666666666666666666666666666666666666666666666666666666",
"66666666666666666666666666666666666666666666666666666666666666666666666666666666666666666666666666666666666666666666666666666666",
"66666666666666666666666666666666666666666666666666666666666666666666666666666666666666666666666666666666666666666666666666666666",
"66666666666666666666666666666666666666666666666666666666666666666666666666666666666666666666666666666666666666666666666666666666",
"66666666666666666666666666666666666666666666666666666666666666666666666666666666666666666666666666666666666666666666666666666666",
"66666666666666666666666666666666666666666666666666666666666666666666666666666666666666666666666666666666666666666666666666666666",
"66666666666666666666666666666666666666666666666666666666666666666666666666666666666666666666666666666666666666666666666666666666",
"66666666666666666666666666666666666666666666666666666666666666666666666666666666666666666666666666666666666666666666666666666666",
"66666666666666666666666666666666666666666666666666666666666666666666666666666666666666666666666666666666666666666666666666666666",
"66666666666666666666666666666666666666666666666666666666666666666666666666666666666666666666666666666666666666666666666666666666",
"66666666666666666666666666666666666666666666666666666666666666666666666666666666666666666666666666666666666666666666666666666666",
"66666666666666666666666666666666666666666666666666666666666666666666666666666666666666666666666666666666666666666666666666666666",
"66666666666666666666666666666666666666666666666666666666666666666666666666666666666666666666666666666666666666666666666666666666",
"66666666666666666666666666666666666666666666666666666666666666666666666666666666666666666666666666666666666666666666666666666666",
"66666666666666666666666666666666666666666666666666666666666666666666666666666666666666666666666666666666666666666666666666666666",
"66666666666666666666666666666666666666666666666666666666666666666666666666666666666666666666666666666666666666666666666666666666",
"66666666666666666666666666666666666666666666666666666666666666666666666666666666666666666666666666666666666666666666666666666666",
"66666666666666666666666666666666666666666666666666666666666666666666666666666666666666666666666666666666666666666666666666666666",
"66666666666666666666666666666666666666666666666666666666666666666666666666666666666666666666666666666666666666666666666666666666",
"66666666666666666666666666666666666666666666666666666666666666666666666666666666666666666666666666666666666666666666666666666666",
"66666666666666666666666666666666666666666666666666666666666666666666666666666666666666666666666666666666666666666666666666666666",
"66666666666666666666666666666666666666666666666666666666666666666666666666666666666666666666666666666666666666666666666666666666",
"66666666666666666666666666666666666666666666666666666666666666666666666666666666666666666666666666666666666666666666666666666666"
};
