/* XPM */
static char *a093d8d45abd4ffc83ac8b41119b7249[] = {
/* columns rows colors chars-per-pixel */
"128 128 28 1 ",
"  c gray30",
". c gray33",
"X c #555454",
"o c #5C5B5B",
"O c #636262",
"+ c #646363",
"@ c #6C6A6A",
"# c #737171",
"$ c #747171",
"% c #7B7979",
"& c #7C7979",
"* c #838080",
"= c #8B8787",
"- c #8B8888",
"; c #928E8E",
": c #9B9696",
"> c #A29E9E",
", c #AAA5A5",
"< c #ABA6A6",
"1 c #B2ACAC",
"2 c #B9B3B3",
"3 c #C2BBBB",
"4 c #C9C2C2",
"5 c #C9C3C3",
"6 c #CAC2C2",
"7 c #CAC3C3",
"8 c #CBC3C3",
"9 c None",
/* pixels */
"99999999999999999999999999999999999999999999999999999999999999999999999999999999999999999999999999999999999999999999999999999999",
"99999999999999999999999999999999999999999999999999999999999999999999999999999999999999999999999999999999999999999999999999999999",
"99999999999999999999999999999999999999999999999999999999999999999999999999999999999999999999999999999999999999999999999999999999",
"99999999999999999999999999999999999999999999999999999999999999999999999999999999999999999999999999999999999999999999999999999999",
"99999999999999999999999999999999999999999999999999999999999999999999999999999999999999999999999999999999999999999999999999999999",
"99999999999999999999999999999999999999999999999999999999999999999999999999999999999999999999999999999999999999999999999999999999",
"99999999999999999999999999999999999999999999999999999999999999999999999999999999999999999999999999999999999999999999999999999999",
"99999999999999999999999999999999999999999999999999999999999999999999999999999999999999999999999999999999999999999999999999999999",
"99999999999999999999999999999999999999999999999999999999999999999999999999999999999999999999999999999999999999999999999999999999",
"99999999999999999999999999999999999999999999999999999999999999999999999999999999999999999999999999999999999999999999999999999999",
"99999999999999999999999999999999999999999999999999999999999999999999999999999999999999999999999999999999999999999999999999999999",
"99999999999999999999999999999999999999999999999999999999999999999999999999999999999999999999999999999999999999999999999999999999",
"99999999999999999999999999999999999999999999999999999999999999999999999999999999999999999999999999999999999999999999999999999999",
"99999999999999999999999999999999999999999999999999999999999999999999999999999999999999999999999999999999999999999999999999999999",
"99999999999999999999999999999999999999999999999999999999999999999999999999999999999999999999999999999999999999999999999999999999",
"99999999999999999999999999999999999999999999999999999999999999999999999999999999999999999999999999999999999999999999999999999999",
"99999999999999999999999999999999999999999999999999999999999999999999999999999999999999999999999999999999999999999999999999999999",
"99999999999999999999999999999999999999999999999999999999999999999999999999999999999999999999999999999999999999999999999999999999",
"99999999999999999999999999999999999999999999999999999999999999999999999999999999999999999999999999999999999999999999999999999999",
"99999999999999999999999999999999999999999999999999999999999999999999999999999999999999999999999999999999999999999999999999999999",
"99999999999999999999999999999999999999999999999999999999999999999999999999999999999999999999999999999999999999999999999999999999",
"99999999999999999999999999999999999999999999999999999999999999999999999999999999999999999999999999999999999999999999999999999999",
"99999999999999999999999999999999999999999999999999999999999999999999999999999999999999999999999999999999999999999999999999999999",
"99999999999999999999999999999999999999999999999999999999999999999999999999999999999999999999999999999999999999999999999999999999",
"99999999999999999999999999999999999999999999999999999999999999999999999999999999999999999999999999999999999999999999999999999999",
"99999999999999999999999999999999999999999999999999999999999999999999999999999999999999999999999999999999999999999999999999999999",
"99999999999999999999999999999999999999999999999999999999999999999999999999999999999999999999999999999999999999999999999999999999",
"99999999999999999999999999999999999999999999999999999999999999999999999999999999999999999999999999999999999999999999999999999999",
"99999999999999999999999999999999999999999999999999999999999999999999999999999999999999999999999999999999999999999999999999999999",
"99999999999999999999999999999999999999999999999999999999999999999999999999999999999999999999999999999999999999999999999999999999",
"99999999999999999999999999999999999999999999999999999999999999999999999999999999999999999999999999999999999999999999999999999999",
"99999999999999999999999999999999999999999999999999999999999999999999999999999999999999999999999999999999999999999999999999999999",
"99999999999999999999999999999999999999448858585858585858585858588585858585858585858585854499999999999999999999999999999999999999",
"99999999999999999999999999999999999458888885858585858585858585855858585858585858585858588888899999999999999999999999999999999999",
"99999999999999999999999999999999994885855858585858585858585858588585858585858585858585858885889999999999999999999999999999999999",
"99999999999999999999999999999999988858588585858585858585858585855858585858585858585858585858588999999999999999999999999999999999",
"99999999999999999999999999999999948585855858585858585858585858588585858585858585858585858585585999999999999999999999999999999999",
"99999999999999999999999999999999885858588585858585858585858585855858585858585858585858585858855899999999999999999999999999999999",
"99999999999999999999999999999999888585855858585858585858585858588585858585858585858585858585585599999999999999999999999999999999",
"99999999999999999999999999999999485858588585858585858585858585855858585858585858585858585858858899999999999999999999999999999999",
"99999999999999999999999999999999585858585858585858585858585858588585858585858585858585858585858599999999999999999999999999999999",
"99999999999999999999999999999999858585858585858585858585858585855858585858585858585858585858585899999999999999999999999999999999",
"99999999999999999999999999999999585858585858585858585858585858588585858585858585858585858585858599999999999999999999999999999999",
"99999999999999999999999999999999858585858585858585858585858585855858585858585858585858585858585899999999999999999999999999999999",
"99999999999999999999999999999999585858585858585858585858585858588585858585858585858585858585858599999999999999999999999999999999",
"99999999999999999999999999999999858585858585858585858585858585855858585858585858585858585858585899999999999999999999999999999999",
"99999999999999999999999999999999585858585858585858855858855858858585858585858585858585858585858599999999999999999999999999999999",
"99999999999999999999999999999999858585858585858585             +@%:2585858585858585858585858585899999999999999999999999999999999",
"99999999999999999999999999999999585858585858585858                  @,8585585858858585858585858599999999999999999999999999999999",
"99999999999999999999999999999999858585858585858585                    @158858585585858585858585899999999999999999999999999999999",
"99999999999999999999999999999999585858585858585858                     .:4885858858585858585858599999999999999999999999999999999",
"99999999999999999999999999999999858585858585858585                       -858585585858585858585899999999999999999999999999999999",
"99999999999999999999999999999999585858585858585858                        :85858858585858585858599999999999999999999999999999999",
"99999999999999999999999999999999858585858585858585                        .18585585858585858585899999999999999999999999999999999",
"99999999999999999999999999999999585858585858585858       -88882<-o         @5858858585858585858599999999999999999999999999999999",
"99999999999999999999999999999999858585858585858585       -88888588:.        ,585585858585858585899999999999999999999999999999999",
"99999999999999999999999999999999585858585858585858       =5458585852.       #858858585858585858599999999999999999999999999999999",
"99999999999999999999999999999999858585858585858585       -8885858588,        885585858585858585899999999999999999999999999999999",
"99999999999999999999999999999999585858585858585858       =58585858858@       ,58858585858585858599999999999999999999999999999999",
"99999999999999999999999999999999858585858585858585       -85858585585>       *85585858585858585899999999999999999999999999999999",
"99999999999999999999999999999999585858585858585858       =585858585852       @58858585858585858599999999999999999999999999999999",
"99999999999999999999999999999999858585858585858585       =858585858585.      @85585858585858585899999999999999999999999999999999",
"99999999999999999999999999999999585858585858585858       =585858585858@      +58858585858585858899999999999999999999999999999999",
"99999999999999999999999999999999858585858585858585       =488585858585@       85585858585858588899999999999999999999999999999999",
"99999999999999999999999999999999858585858585858588       -858585585858@      o58858585858585858599999999999999999999999999999999",
"99999999999999999999999999999999585858585858585854       -585858858585O      @85585858585858585899999999999999999999999999999999",
"99999999999999999999999999999999858585858585858585       =858585585888       @58858585858585858599999999999999999999999999999999",
"99999999999999999999999999999999585858585858585858       =585858858541       #85585858585858585899999999999999999999999999999999",
"99999999999999999999999999999999858585858585858585       =48858558858-       ;85858585858585858599999999999999999999999999999999",
"99999999999999999999999999999999585858585858585858       =58585885585.       158585858585858585899999999999999999999999999999999",
"99999999999999999999999999999999858585858585858585       =8585855855*       .585858585858585858599999999999999999999999999999999",
"99999999999999999999999999999999585858585858585858       -585858858:        -858585858585858585899999999999999999999999999999999",
"99999999999999999999999999999999858585858585858585       =45858542#        .3585858585858585858599999999999999999999999999999999",
"99999999999999999999999999999999585858585858585858       -888,,-#          %8858585858585858585899999999999999999999999999999999",
"99999999999999999999999999999999858585858585858585                        O38585858585858585858599999999999999999999999999999999",
"99999999999999999999999999999999585858585858585858                       .145858585858585858585899999999999999999999999999999999",
"99999999999999999999999999999999858585858585858585                      .,858585858585858585858599999999999999999999999999999999",
"99999999999999999999999999999999585858585858585858                     O18585858585858585858585899999999999999999999999999999999",
"99999999999999999999999999999999858585858585858585                   .-358858585858585858585858599999999999999999999999999999999",
"99999999999999999999999999999999585858585858585858                 o-34585585858585858585858585899999999999999999999999999999999",
"99999999999999999999999999999999858585858585858585           o@@%:28585858585858585858588585858599999999999999999999999999999999",
"99999999999999999999999999999999585858585858585858855858855858858858858585858585858585855858585899999999999999999999999999999999",
"99999999999999999999999999999999858585858585858585858585858585858585585858585858585858588585858599999999999999999999999999999999",
"99999999999999999999999999999999585858585858585858585858585858585858858585858585858585855858585899999999999999999999999999999999",
"99999999999999999999999999999999858585858585858585858585858585855858585858585858585858588585858599999999999999999999999999999999",
"99999999999999999999999999999999585858585858585858585858585858588585858585858585858585855858585899999999999999999999999999999999",
"99999999999999999999999999999999858585858585858585858585858585855858585858585858585858588585858599999999999999999999999999999999",
"99999999999999999999999999999999585858585858585858585858585858588585858585858585858585855858588499999999999999999999999999999999",
"99999999999999999999999999999999585858588585858585858585858585855858585858585858585858585858585599999999999999999999999999999999",
"99999999999999999999999999999999558585855858585858585858585858588585858585858585858585858585858599999999999999999999999999999999",
"99999999999999999999999999999999485858588585858585858585858585855858585858585858585858585858888899999999999999999999999999999999",
"99999999999999999999999999999999958585855858585858585858585858588585858585858585858585858585884999999999999999999999999999999999",
"99999999999999999999999999999999948888588585858585858585858585855858585858585858585858585885858999999999999999999999999999999999",
"99999999999999999999999999999999995888855858585858585858585858588585858585858585858585858588849999999999999999999999999999999999",
"99999999999999999999999999999999999448888585858585858585858585885858585858585858585858585888599999999999999999999999999999999999",
"99999999999999999999999999999999999999545858585858585858585858888585858585858585858585854499999999999999999999999999999999999999",
"99999999999999999999999999999999999999999999999999999999999999999999999999999999999999999999999999999999999999999999999999999999",
"99999999999999999999999999999999999999999999999999999999999999999999999999999999999999999999999999999999999999999999999999999999",
"99999999999999999999999999999999999999999999999999999999999999999999999999999999999999999999999999999999999999999999999999999999",
"99999999999999999999999999999999999999999999999999999999999999999999999999999999999999999999999999999999999999999999999999999999",
"99999999999999999999999999999999999999999999999999999999999999999999999999999999999999999999999999999999999999999999999999999999",
"99999999999999999999999999999999999999999999999999999999999999999999999999999999999999999999999999999999999999999999999999999999",
"99999999999999999999999999999999999999999999999999999999999999999999999999999999999999999999999999999999999999999999999999999999",
"99999999999999999999999999999999999999999999999999999999999999999999999999999999999999999999999999999999999999999999999999999999",
"99999999999999999999999999999999999999999999999999999999999999999999999999999999999999999999999999999999999999999999999999999999",
"99999999999999999999999999999999999999999999999999999999999999999999999999999999999999999999999999999999999999999999999999999999",
"99999999999999999999999999999999999999999999999999999999999999999999999999999999999999999999999999999999999999999999999999999999",
"99999999999999999999999999999999999999999999999999999999999999999999999999999999999999999999999999999999999999999999999999999999",
"99999999999999999999999999999999999999999999999999999999999999999999999999999999999999999999999999999999999999999999999999999999",
"99999999999999999999999999999999999999999999999999999999999999999999999999999999999999999999999999999999999999999999999999999999",
"99999999999999999999999999999999999999999999999999999999999999999999999999999999999999999999999999999999999999999999999999999999",
"99999999999999999999999999999999999999999999999999999999999999999999999999999999999999999999999999999999999999999999999999999999",
"99999999999999999999999999999999999999999999999999999999999999999999999999999999999999999999999999999999999999999999999999999999",
"99999999999999999999999999999999999999999999999999999999999999999999999999999999999999999999999999999999999999999999999999999999",
"99999999999999999999999999999999999999999999999999999999999999999999999999999999999999999999999999999999999999999999999999999999",
"99999999999999999999999999999999999999999999999999999999999999999999999999999999999999999999999999999999999999999999999999999999",
"99999999999999999999999999999999999999999999999999999999999999999999999999999999999999999999999999999999999999999999999999999999",
"99999999999999999999999999999999999999999999999999999999999999999999999999999999999999999999999999999999999999999999999999999999",
"99999999999999999999999999999999999999999999999999999999999999999999999999999999999999999999999999999999999999999999999999999999",
"99999999999999999999999999999999999999999999999999999999999999999999999999999999999999999999999999999999999999999999999999999999",
"99999999999999999999999999999999999999999999999999999999999999999999999999999999999999999999999999999999999999999999999999999999",
"99999999999999999999999999999999999999999999999999999999999999999999999999999999999999999999999999999999999999999999999999999999",
"99999999999999999999999999999999999999999999999999999999999999999999999999999999999999999999999999999999999999999999999999999999",
"99999999999999999999999999999999999999999999999999999999999999999999999999999999999999999999999999999999999999999999999999999999",
"99999999999999999999999999999999999999999999999999999999999999999999999999999999999999999999999999999999999999999999999999999999",
"99999999999999999999999999999999999999999999999999999999999999999999999999999999999999999999999999999999999999999999999999999999",
"99999999999999999999999999999999999999999999999999999999999999999999999999999999999999999999999999999999999999999999999999999999",
"99999999999999999999999999999999999999999999999999999999999999999999999999999999999999999999999999999999999999999999999999999999"
};
