/* XPM */
static char *_6fdb8f494bd4fdce656c8605b51cb44[] = {
/* columns rows colors chars-per-pixel */
"128 128 40 1 ",
"  c gray30",
". c #545353",
"X c #555454",
"o c #5D5C5C",
"O c #646363",
"+ c #656464",
"@ c #6C6A6A",
"# c #6D6B6B",
"$ c #747171",
"% c #747272",
"& c #7B7979",
"* c #7C7979",
"= c #838080",
"- c #8B8888",
"; c #8C8888",
": c #938F8F",
"> c #9B9797",
", c #9C9797",
"< c #A39E9E",
"1 c #AAA5A5",
"2 c #ABA6A6",
"3 c #B2ACAC",
"4 c #BBB5B5",
"5 c #C2BCBC",
"6 c #C9C2C2",
"7 c #CAC2C2",
"8 c #CAC3C3",
"9 c #CBC3C3",
"0 c #CAC4C4",
"q c #CCC4C4",
"w c #CCC5C5",
"e c #CCC6C6",
"r c #CDC6C6",
"t c #CDC7C7",
"y c #CEC7C7",
"u c #CEC8C8",
"i c #D2CBCB",
"p c #D3CECE",
"a c #D4CECE",
"s c None",
/* pixels */
"ssssssssssssssssssssssssssssssssssssssssssssssssssssssssssssssssssssssssssssssssssssssssssssssssssssssssssssssssssssssssssssssss",
"ssssssssssssssssssssssssssssssssssssssssssssssssssssssssssssssssssssssssssssssssssssssssssssssssssssssssssssssssssssssssssssssss",
"ssssssssssssssssssssssssssssssssssssssssssssssssssssssssssssssssssssssssssssssssssssssssssssssssssssssssssssssssssssssssssssssss",
"ssssssssssssssssssssssssssssssssssssssssssssssssssssssssssssssssssssssssssssssssssssssssssssssssssssssssssssssssssssssssssssssss",
"ssssssssssssssssssssssssssssssssssssssssssssssssssssssssssssssssssssssssssssssssssssssssssssssssssssssssssssssssssssssssssssssss",
"ssssssssssssssssssssssssssssssssssssssssssssssssssssssssssssssssssssssssssssssssssssssssssssssssssssssssssssssssssssssssssssssss",
"ssssssssssssssssssssssssssssssssssssssssssssssssssssssssssssssssssssssssssssssssssssssssssssssssssssssssssssssssssssssssssssssss",
"ssssssssssssssssssssssssssssssssssssssssssssssssssssssssssssssssssssssssssssssssssssssssssssssssssssssssssssssssssssssssssssssss",
"ssssssssssssssssssssssssssssssssssssssssssssssssssssssssssssssssssssssssssssssssssssssssssssssssssssssssssssssssssssssssssssssss",
"ssssssssssssssssssssssssssssssssssssssssssssssssssssssssssssssssssssssssssssssssssssssssssssssssssssssssssssssssssssssssssssssss",
"ssssssssssssssssssssssssssssssssssssssssssssssssssssssssssssssssssssssssssssssssssssssssssssssssssssssssssssssssssssssssssssssss",
"ssssssssssssssssssssssssssssssssssssssssssssssssssssssssssssssssssssssssssssssssssssssssssssssssssssssssssssssssssssssssssssssss",
"ssssssssssssssssssssssssssssssssssssssssssssssssssssssssssssssssssssssssssssssssssssssssssssssssssssssssssssssssssssssssssssssss",
"ssssssssssssssssssssssssssssssssssssssssssssssssssssssssssssssssssssssssssssssssssssssssssssssssssssssssssssssssssssssssssssssss",
"ssssssssssssssssssssssssssssssssssssssssssssssssssssssssssssssssssssssssssssssssssssssssssssssssssssssssssssssssssssssssssssssss",
"ssssssssssssssssssssssssssssssssssssssssssssssssssssssssssssssssssssssssssssssssssssssssssssssssssssssssssssssssssssssssssssssss",
"ssssssssssssssssssssssssssssssssssssssssssssssssssssssssssssssssssssssssssssssssssssssssssssssssssssssssssssssssssssssssssssssss",
"ssssssssssssssssssssssssssssssssssssssssssssssssssssssssssssssssssssssssssssssssssssssssssssssssssssssssssssssssssssssssssssssss",
"ssssssssssssssssssssssssssssssssssssssssssssssssssssssssssssssssssssssssssssssssssssssssssssssssssssssssssssssssssssssssssssssss",
"ssssssssssssssssssssssssssssssssssssssssssssssssssssssssssssssssssssssssssssssssssssssssssssssssssssssssssssssssssssssssssssssss",
"ssssssssssssssssssssssssssssssssssssssssssssssssssssssssssssssssssssssssssssssssssssssssssssssssssssssssssssssssssssssssssssssss",
"ssssssssssssssssssssssssssssssssssssssssssssssssssssssssssssssssssssssssssssssssssssssssssssssssssssssssssssssssssssssssssssssss",
"ssssssssssssssssssssssssssssssssssssssssssssssssssssssssssssssssssssssssssssssssssssssssssssssssssssssssssssssssssssssssssssssss",
"ssssssssssssssssssssssssssssssssssssssssssssssssssssssssssssssssssssssssssssssssssssssssssssssssssssssssssssssssssssssssssssssss",
"ssssssssssssssssssssssssssssssssssssssssssssssssssssssssssssssssssssssssssssssssssssssssssssssssssssssssssssssssssssssssssssssss",
"ssssssssssssssssssssssssssssssssssssssssssssssssssssssssssssssssssssssssssssssssssssssssssssssssssssssssssssssssssssssssssssssss",
"ssssssssssssssssssssssssssssssssssssssssssssssssssssssssssssssssssssssssssssssssssssssssssssssssssssssssssssssssssssssssssssssss",
"ssssssssssssssssssssssssssssssssssssssssssssssssssssssssssssssssssssssssssssssssssssssssssssssssssssssssssssssssssssssssssssssss",
"ssssssssssssssssssssssssssssssssssssssssssssssssssssssssssssssssssssssssssssssssssssssssssssssssssssssssssssssssssssssssssssssss",
"ssssssssssssssssssssssssssssssssssssssssssssssssssssssssssssssssssssssssssssssssssssssssssssssssssssssssssssssssssssssssssssssss",
"ssssssssssssssssssssssssssssssssssssssssssssssssssssssssssssssssssssssssssssssssssssssssssssssssssssssssssssssssssssssssssssssss",
"ssssssssssssssssssssssssssssssssssssssssssssssssssssssssssssssssssssssssssssssssssssssssssssssssssssssssssssssssssssssssssssssss",
"sssssssssssssssssssssssssssssssssssssaw88888888888888888888888888888888888888888888888888wasssssssssssssssssssssssssssssssssssss",
"sssssssssssssssssssssssssssssssssssw88888888888888888888888888888888888888888888888888888888wsssssssssssssssssssssssssssssssssss",
"ssssssssssssssssssssssssssssssssss8888888888888888888888888888888888888888888888888888888888w0ssssssssssssssssssssssssssssssssss",
"sssssssssssssssssssssssssssssssssw888888888888888888888888888888888888888888888888888888888888wsssssssssssssssssssssssssssssssss",
"sssssssssssssssssssssssssssssssss88888888888888888888888888888888888888888888888888888888888888sssssssssssssssssssssssssssssssss",
"ssssssssssssssssssssssssssssssssi08888888888888888888888888888888888888888888888888888888888888issssssssssssssssssssssssssssssss",
"ssssssssssssssssssssssssssssssss0888888888888888888888888888888888888888888888888888888888888888ssssssssssssssssssssssssssssssss",
"ssssssssssssssssssssssssssssssss8888888888888888888888888888888888888888888888888888888888888888ssssssssssssssssssssssssssssssss",
"ssssssssssssssssssssssssssssssss8888888888888888888888888888888888888888888888888888888888888888ssssssssssssssssssssssssssssssss",
"ssssssssssssssssssssssssssssssss8888888888888888888888888888888888888888888888888888888888888888ssssssssssssssssssssssssssssssss",
"ssssssssssssssssssssssssssssssss8888888888888888888888888888888888888888888888888888888888888888ssssssssssssssssssssssssssssssss",
"ssssssssssssssssssssssssssssssss8888888888888888888888888888888888888888888888888888888888888888ssssssssssssssssssssssssssssssss",
"ssssssssssssssssssssssssssssssss8888888888888888888888888888888888888888888888888888888888888888ssssssssssssssssssssssssssssssss",
"ssssssssssssssssssssssssssssssss8888888888888888888888888888888888888888888888888888888888888888ssssssssssssssssssssssssssssssss",
"ssssssssssssssssssssssssssssssss8888888888888888888888888888888888888888888888888888888888888888ssssssssssssssssssssssssssssssss",
"ssssssssssssssssssssssssssssssss888888888888888888             O#*,48888888888888888888888888888ssssssssssssssssssssssssssssssss",
"ssssssssssssssssssssssssssssssss888888888888888888                  #188888888888888888888888888ssssssssssssssssssssssssssssssss",
"ssssssssssssssssssssssssssssssss888888888888888888                    #3888888888888888888888888ssssssssssssssssssssssssssssssss",
"ssssssssssssssssssssssssssssssss888888888888888888                     .,88888888888888888888888ssssssssssssssssssssssssssssssss",
"ssssssssssssssssssssssssssssssss888888888888888888                       ;8888888888888888888888ssssssssssssssssssssssssssssssss",
"ssssssssssssssssssssssssssssssss888888888888888888                        >888888888888888888888ssssssssssssssssssssssssssssssss",
"ssssssssssssssssssssssssssssssss888888888888888888                        X388888888888888888888ssssssssssssssssssssssssssssssss",
"ssssssssssssssssssssssssssssssss888888888888888888       ;888851;o         #88888888888888888888ssssssssssssssssssssssssssssssss",
"ssssssssssssssssssssssssssssssss888888888888888888       ;88888888>.        18888888888888888888ssssssssssssssssssssssssssssssss",
"ssssssssssssssssssssssssssssssss888888888888888888       ;8888888884.       $8888888888888888888ssssssssssssssssssssssssssssssss",
"ssssssssssssssssssssssssssssssss888888888888888888       ;88888888881        8888888888888888888ssssssssssssssssssssssssssssssss",
"ssssssssssssssssssssssssssssssss888888888888888888       ;88888888888@       1888888888888888888ssssssssssssssssssssssssssssssss",
"ssssssssssssssssssssssssssssssss888888888888888888       ;88888888888<       =888888888888888888ssssssssssssssssssssssssssssssss",
"ssssssssssssssssssssssssssssssss888888888888888888       ;888888888884       @888888888888888888ssssssssssssssssssssssssssssssss",
"ssssssssssssssssssssssssssssssss888888888888888888       ;888888888888.      #888888888888888888ssssssssssssssssssssssssssssssss",
"ssssssssssssssssssssssssssssssss888888888888888888       ;888888888888#      O888888888888888888ssssssssssssssssssssssssssssssss",
"ssssssssssssssssssssssssssssssss888888888888888888       ;888888888888@       888888888888888888ssssssssssssssssssssssssssssssss",
"ssssssssssssssssssssssssssssssss888888888888888888       ;888888888888#      o888888888888888888ssssssssssssssssssssssssssssssss",
"ssssssssssssssssssssssssssssssss888888888888888888       ;888888888888O      @888888888888888888ssssssssssssssssssssssssssssssss",
"ssssssssssssssssssssssssssssssss888888888888888888       ;888888888888       @888888888888888888ssssssssssssssssssssssssssssssss",
"ssssssssssssssssssssssssssssssss888888888888888888       ;888888888883       $888888888888888888ssssssssssssssssssssssssssssssss",
"ssssssssssssssssssssssssssssssss888888888888888888       ;88888888888-       :888888888888888888ssssssssssssssssssssssssssssssss",
"ssssssssssssssssssssssssssssssss888888888888888888       ;88888888888.       3888888888888888888ssssssssssssssssssssssssssssssss",
"ssssssssssssssssssssssssssssssss888888888888888888       ;8888888888=       .8888888888888888888ssssssssssssssssssssssssssssssss",
"ssssssssssssssssssssssssssssssss888888888888888888       ;888888888>        -8888888888888888888ssssssssssssssssssssssssssssssss",
"ssssssssssssssssssssssssssssssss888888888888888888       ;88888884$        .58888888888888888888ssssssssssssssssssssssssssssssss",
"ssssssssssssssssssssssssssssssss888888888888888888       -88811-$          &88888888888888888888ssssssssssssssssssssssssssssssss",
"ssssssssssssssssssssssssssssssss888888888888888888                        O588888888888888888888ssssssssssssssssssssssssssssssss",
"ssssssssssssssssssssssssssssssss888888888888888888                       .3888888888888888888888ssssssssssssssssssssssssssssssss",
"ssssssssssssssssssssssssssssssss888888888888888888                      .18888888888888888888888ssssssssssssssssssssssssssssssss",
"ssssssssssssssssssssssssssssssss888888888888888888                     O388888888888888888888888ssssssssssssssssssssssssssssssss",
"ssssssssssssssssssssssssssssssss888888888888888888                   .;5888888888888888888888888ssssssssssssssssssssssssssssssss",
"ssssssssssssssssssssssssssssssss888888888888888888                 o;588888888888888888888888888ssssssssssssssssssssssssssssssss",
"ssssssssssssssssssssssssssssssss888888888888888888           o#@&>488888888888888888888888888888ssssssssssssssssssssssssssssssss",
"ssssssssssssssssssssssssssssssss8888888888888888888888888888888888888888888888888888888888888888ssssssssssssssssssssssssssssssss",
"ssssssssssssssssssssssssssssssss8888888888888888888888888888888888888888888888888888888888888888ssssssssssssssssssssssssssssssss",
"ssssssssssssssssssssssssssssssss8888888888888888888888888888888888888888888888888888888888888888ssssssssssssssssssssssssssssssss",
"ssssssssssssssssssssssssssssssss8888888888888888888888888888888888888888888888888888888888888888ssssssssssssssssssssssssssssssss",
"ssssssssssssssssssssssssssssssss8888888888888888888888888888888888888888888888888888888888888888ssssssssssssssssssssssssssssssss",
"ssssssssssssssssssssssssssssssss8888888888888888888888888888888888888888888888888888888888888888ssssssssssssssssssssssssssssssss",
"ssssssssssssssssssssssssssssssss8888888888888888888888888888888888888888888888888888888888888888ssssssssssssssssssssssssssssssss",
"ssssssssssssssssssssssssssssssss8888888888888888888888888888888888888888888888888888888888888888ssssssssssssssssssssssssssssssss",
"ssssssssssssssssssssssssssssssss8888888888888888888888888888888888888888888888888888888888888880ssssssssssssssssssssssssssssssss",
"ssssssssssssssssssssssssssssssssi88888888888888888888888888888888888888888888888888888888888888issssssssssssssssssssssssssssssss",
"sssssssssssssssssssssssssssssssss88888888888888888888888888888888888888888888888888888888888888sssssssssssssssssssssssssssssssss",
"sssssssssssssssssssssssssssssssssu888888888888888888888888888888888888888888888888888888888888usssssssssssssssssssssssssssssssss",
"ssssssssssssssssssssssssssssssssss888888888888888888888888888888888888888888888888888888888888ssssssssssssssssssssssssssssssssss",
"sssssssssssssssssssssssssssssssssssw88888888888888888888888888888888888888888888888888888888wsssssssssssssssssssssssssssssssssss",
"sssssssssssssssssssssssssssssssssssssaq88888888888888888888888888888888888888888888888888qasssssssssssssssssssssssssssssssssssss",
"ssssssssssssssssssssssssssssssssssssssssssssssssssssssssssssssssssssssssssssssssssssssssssssssssssssssssssssssssssssssssssssssss",
"ssssssssssssssssssssssssssssssssssssssssssssssssssssssssssssssssssssssssssssssssssssssssssssssssssssssssssssssssssssssssssssssss",
"ssssssssssssssssssssssssssssssssssssssssssssssssssssssssssssssssssssssssssssssssssssssssssssssssssssssssssssssssssssssssssssssss",
"ssssssssssssssssssssssssssssssssssssssssssssssssssssssssssssssssssssssssssssssssssssssssssssssssssssssssssssssssssssssssssssssss",
"ssssssssssssssssssssssssssssssssssssssssssssssssssssssssssssssssssssssssssssssssssssssssssssssssssssssssssssssssssssssssssssssss",
"ssssssssssssssssssssssssssssssssssssssssssssssssssssssssssssssssssssssssssssssssssssssssssssssssssssssssssssssssssssssssssssssss",
"ssssssssssssssssssssssssssssssssssssssssssssssssssssssssssssssssssssssssssssssssssssssssssssssssssssssssssssssssssssssssssssssss",
"ssssssssssssssssssssssssssssssssssssssssssssssssssssssssssssssssssssssssssssssssssssssssssssssssssssssssssssssssssssssssssssssss",
"ssssssssssssssssssssssssssssssssssssssssssssssssssssssssssssssssssssssssssssssssssssssssssssssssssssssssssssssssssssssssssssssss",
"ssssssssssssssssssssssssssssssssssssssssssssssssssssssssssssssssssssssssssssssssssssssssssssssssssssssssssssssssssssssssssssssss",
"ssssssssssssssssssssssssssssssssssssssssssssssssssssssssssssssssssssssssssssssssssssssssssssssssssssssssssssssssssssssssssssssss",
"ssssssssssssssssssssssssssssssssssssssssssssssssssssssssssssssssssssssssssssssssssssssssssssssssssssssssssssssssssssssssssssssss",
"ssssssssssssssssssssssssssssssssssssssssssssssssssssssssssssssssssssssssssssssssssssssssssssssssssssssssssssssssssssssssssssssss",
"ssssssssssssssssssssssssssssssssssssssssssssssssssssssssssssssssssssssssssssssssssssssssssssssssssssssssssssssssssssssssssssssss",
"ssssssssssssssssssssssssssssssssssssssssssssssssssssssssssssssssssssssssssssssssssssssssssssssssssssssssssssssssssssssssssssssss",
"ssssssssssssssssssssssssssssssssssssssssssssssssssssssssssssssssssssssssssssssssssssssssssssssssssssssssssssssssssssssssssssssss",
"ssssssssssssssssssssssssssssssssssssssssssssssssssssssssssssssssssssssssssssssssssssssssssssssssssssssssssssssssssssssssssssssss",
"ssssssssssssssssssssssssssssssssssssssssssssssssssssssssssssssssssssssssssssssssssssssssssssssssssssssssssssssssssssssssssssssss",
"ssssssssssssssssssssssssssssssssssssssssssssssssssssssssssssssssssssssssssssssssssssssssssssssssssssssssssssssssssssssssssssssss",
"ssssssssssssssssssssssssssssssssssssssssssssssssssssssssssssssssssssssssssssssssssssssssssssssssssssssssssssssssssssssssssssssss",
"ssssssssssssssssssssssssssssssssssssssssssssssssssssssssssssssssssssssssssssssssssssssssssssssssssssssssssssssssssssssssssssssss",
"ssssssssssssssssssssssssssssssssssssssssssssssssssssssssssssssssssssssssssssssssssssssssssssssssssssssssssssssssssssssssssssssss",
"ssssssssssssssssssssssssssssssssssssssssssssssssssssssssssssssssssssssssssssssssssssssssssssssssssssssssssssssssssssssssssssssss",
"ssssssssssssssssssssssssssssssssssssssssssssssssssssssssssssssssssssssssssssssssssssssssssssssssssssssssssssssssssssssssssssssss",
"ssssssssssssssssssssssssssssssssssssssssssssssssssssssssssssssssssssssssssssssssssssssssssssssssssssssssssssssssssssssssssssssss",
"ssssssssssssssssssssssssssssssssssssssssssssssssssssssssssssssssssssssssssssssssssssssssssssssssssssssssssssssssssssssssssssssss",
"ssssssssssssssssssssssssssssssssssssssssssssssssssssssssssssssssssssssssssssssssssssssssssssssssssssssssssssssssssssssssssssssss",
"ssssssssssssssssssssssssssssssssssssssssssssssssssssssssssssssssssssssssssssssssssssssssssssssssssssssssssssssssssssssssssssssss",
"ssssssssssssssssssssssssssssssssssssssssssssssssssssssssssssssssssssssssssssssssssssssssssssssssssssssssssssssssssssssssssssssss",
"ssssssssssssssssssssssssssssssssssssssssssssssssssssssssssssssssssssssssssssssssssssssssssssssssssssssssssssssssssssssssssssssss",
"ssssssssssssssssssssssssssssssssssssssssssssssssssssssssssssssssssssssssssssssssssssssssssssssssssssssssssssssssssssssssssssssss",
"ssssssssssssssssssssssssssssssssssssssssssssssssssssssssssssssssssssssssssssssssssssssssssssssssssssssssssssssssssssssssssssssss"
};
