/* XPM */
static char *d6a86b4c7267479385787e8434f016c1[] = {
/* columns rows colors chars-per-pixel */
"128 128 42 1 ",
"  c gray30",
". c #545353",
"X c #555454",
"o c #5C5B5B",
"O c #5D5C5C",
"+ c #646363",
"@ c #656464",
"# c #6C6A6A",
"$ c #6D6B6B",
"% c #747171",
"& c #747272",
"* c #7B7979",
"= c #7C7979",
"- c #838080",
"; c #848181",
": c #8B8888",
"> c #8C8888",
", c #938F8F",
"< c #9B9797",
"1 c #9C9797",
"2 c #A39E9E",
"3 c #A39F9F",
"4 c #AAA5A5",
"5 c #B2ACAC",
"6 c #BBB5B5",
"7 c #C2BCBC",
"8 c #C9C2C2",
"9 c #CAC2C2",
"0 c #CAC3C3",
"q c #CBC3C3",
"w c #CAC4C4",
"e c #CCC4C4",
"r c #CCC5C5",
"t c #CCC6C6",
"y c #CDC6C6",
"u c #CDC7C7",
"i c #CEC7C7",
"p c #CEC8C8",
"a c #D2CBCB",
"s c #D3CECE",
"d c #D4CECE",
"f c None",
/* pixels */
"ffffffffffffffffffffffffffffffffffffffffffffffffffffffffffffffffffffffffffffffffffffffffffffffffffffffffffffffffffffffffffffffff",
"ffffffffffffffffffffffffffffffffffffffffffffffffffffffffffffffffffffffffffffffffffffffffffffffffffffffffffffffffffffffffffffffff",
"ffffffffffffffffffffffffffffffffffffffffffffffffffffffffffffffffffffffffffffffffffffffffffffffffffffffffffffffffffffffffffffffff",
"ffffffffffffffffffffffffffffffffffffffffffffffffffffffffffffffffffffffffffffffffffffffffffffffffffffffffffffffffffffffffffffffff",
"ffffffffffffffffffffffffffffffffffffffffffffffffffffffffffffffffffffffffffffffffffffffffffffffffffffffffffffffffffffffffffffffff",
"ffffffffffffffffffffffffffffffffffffffffffffffffffffffffffffffffffffffffffffffffffffffffffffffffffffffffffffffffffffffffffffffff",
"ffffffffffffffffffffffffffffffffffffffffffffffffffffffffffffffffffffffffffffffffffffffffffffffffffffffffffffffffffffffffffffffff",
"ffffffffffffffffffffffffffffffffffffffffffffffffffffffffffffffffffffffffffffffffffffffffffffffffffffffffffffffffffffffffffffffff",
"ffffffffffffffffffffffffffffffffffffffffffffffffffffffffffffffffffffffffffffffffffffffffffffffffffffffffffffffffffffffffffffffff",
"ffffffffffffffffffffffffffffffffffffffffffffffffffffffffffffffffffffffffffffffffffffffffffffffffffffffffffffffffffffffffffffffff",
"ffffffffffffffffffffffffffffffffffffffffffffffffffffffffffffffffffffffffffffffffffffffffffffffffffffffffffffffffffffffffffffffff",
"ffffffffffffffffffffffffffffffffffffffffffffffffffffffffffffffffffffffffffffffffffffffffffffffffffffffffffffffffffffffffffffffff",
"ffffffffffffffffffffffffffffffffffffffffffffffffffffffffffffffffffffffffffffffffffffffffffffffffffffffffffffffffffffffffffffffff",
"ffffffffffffffffffffffffffffffffffffffffffffffffffffffffffffffffffffffffffffffffffffffffffffffffffffffffffffffffffffffffffffffff",
"ffffffffffffffffffffffffffffffffffffffffffffffffffffffffffffffffffffffffffffffffffffffffffffffffffffffffffffffffffffffffffffffff",
"ffffffffffffffffffffffffffffffffffffffffffffffffffffffffffffffffffffffffffffffffffffffffffffffffffffffffffffffffffffffffffffffff",
"ffffffffffffffffffffffffffffffffffffffffffffffffffffffffffffffffffffffffffffffffffffffffffffffffffffffffffffffffffffffffffffffff",
"ffffffffffffffffffffffffffffffffffffffffffffffffffffffffffffffffffffffffffffffffffffffffffffffffffffffffffffffffffffffffffffffff",
"ffffffffffffffffffffffffffffffffffffffffffffffffffffffffffffffffffffffffffffffffffffffffffffffffffffffffffffffffffffffffffffffff",
"ffffffffffffffffffffffffffffffffffffffffffffffffffffffffffffffffffffffffffffffffffffffffffffffffffffffffffffffffffffffffffffffff",
"ffffffffffffffffffffffffffffffffffffffffffffffffffffffffffffffffffffffffffffffffffffffffffffffffffffffffffffffffffffffffffffffff",
"ffffffffffffffffffffffffffffffffffffffffffffffffffffffffffffffffffffffffffffffffffffffffffffffffffffffffffffffffffffffffffffffff",
"ffffffffffffffffffffffffffffffffffffffffffffffffffffffffffffffffffffffffffffffffffffffffffffffffffffffffffffffffffffffffffffffff",
"ffffffffffffffffffffffffffffffffffffffffffffffffffffffffffffffffffffffffffffffffffffffffffffffffffffffffffffffffffffffffffffffff",
"ffffffffffffffffffffffffffffffffffffffffffffffffffffffffffffffffffffffffffffffffffffffffffffffffffffffffffffffffffffffffffffffff",
"ffffffffffffffffffffffffffffffffffffffffffffffffffffffffffffffffffffffffffffffffffffffffffffffffffffffffffffffffffffffffffffffff",
"ffffffffffffffffffffffffffffffffffffffffffffffffffffffffffffffffffffffffffffffffffffffffffffffffffffffffffffffffffffffffffffffff",
"ffffffffffffffffffffffffffffffffffffffffffffffffffffffffffffffffffffffffffffffffffffffffffffffffffffffffffffffffffffffffffffffff",
"ffffffffffffffffffffffffffffffffffffffffffffffffffffffffffffffffffffffffffffffffffffffffffffffffffffffffffffffffffffffffffffffff",
"ffffffffffffffffffffffffffffffffffffffffffffffffffffffffffffffffffffffffffffffffffffffffffffffffffffffffffffffffffffffffffffffff",
"ffffffffffffffffffffffffffffffffffffffffffffffffffffffffffffffffffffffffffffffffffffffffffffffffffffffffffffffffffffffffffffffff",
"ffffffffffffffffffffffffffffffffffffffffffffffffffffffffffffffffffffffffffffffffffffffffffffffffffffffffffffffffffffffffffffffff",
"fffffffffffffffffffffffffffffffffffffdr00000000000000000000000000000000000000000000000000rdfffffffffffffffffffffffffffffffffffff",
"fffffffffffffffffffffffffffffffffffr00000000000000000000000000000000000000000000000000000000rfffffffffffffffffffffffffffffffffff",
"ffffffffffffffffffffffffffffffffff0000000000000000000000000000000000000000000000000000000000rwffffffffffffffffffffffffffffffffff",
"fffffffffffffffffffffffffffffffffr000000000000000000000000000000000000000000000000000000000000rfffffffffffffffffffffffffffffffff",
"fffffffffffffffffffffffffffffffff00000000000000000000000000000000000000000000000000000000000000fffffffffffffffffffffffffffffffff",
"ffffffffffffffffffffffffffffffffaw0000000000000000000000000000000000000000000000000000000000000affffffffffffffffffffffffffffffff",
"ffffffffffffffffffffffffffffffffw000000000000000000000000000000000000000000000000000000000000000ffffffffffffffffffffffffffffffff",
"ffffffffffffffffffffffffffffffff0000000000000000000000000000000000000000000000000000000000000000ffffffffffffffffffffffffffffffff",
"ffffffffffffffffffffffffffffffff0000000000000000000000000000000000000000000000000000000000000000ffffffffffffffffffffffffffffffff",
"ffffffffffffffffffffffffffffffff0000000000000000000000000000000000000000000000000000000000000000ffffffffffffffffffffffffffffffff",
"ffffffffffffffffffffffffffffffff0000000000000000000000000000000000000000000000000000000000000000ffffffffffffffffffffffffffffffff",
"ffffffffffffffffffffffffffffffff0000000000000000000000000000000000000000000000000000000000000000ffffffffffffffffffffffffffffffff",
"ffffffffffffffffffffffffffffffff0000000000000000000000000000000000000000000000000000000000000000ffffffffffffffffffffffffffffffff",
"ffffffffffffffffffffffffffffffff0000000000000000000000000000000000000000000000000000000000000000ffffffffffffffffffffffffffffffff",
"ffffffffffffffffffffffffffffffff0000000000000000000000000000r00000r00000000000000000000000000000ffffffffffffffffffffffffffffffff",
"ffffffffffffffffffffffffffffffff0000000000000000000000000006>-#o X##-160000000000000000000000000ffffffffffffffffffffffffffffffff",
"ffffffffffffffffffffffffffffffff00000000000000000000000006=            @,60000000000000000000000ffffffffffffffffffffffffffffffff",
"ffffffffffffffffffffffffffffffff000000000000000000000000-                 *000000000000000000000ffffffffffffffffffffffffffffffff",
"ffffffffffffffffffffffffffffffff00000000000000000000000*                  *000000000000000000000ffffffffffffffffffffffffffffffff",
"ffffffffffffffffffffffffffffffff0000000000000000000000<                   5000000000000000000000ffffffffffffffffffffffffffffffff",
"ffffffffffffffffffffffffffffffff0000000000000000000000.                  O0000000000000000000000ffffffffffffffffffffffffffffffff",
"ffffffffffffffffffffffffffffffff000000000000000000000<                   -0000000000000000000000ffffffffffffffffffffffffffffffff",
"ffffffffffffffffffffffffffffffff000000000000000000000*       #260541%    60000000000000000000000ffffffffffffffffffffffffffffffff",
"ffffffffffffffffffffffffffffffff000000000000000000000#      o000000007<#+00000000000000000000000ffffffffffffffffffffffffffffffff",
"ffffffffffffffffffffffffffffffff000000000000000000000#      #00000000000700000000000000000000000ffffffffffffffffffffffffffffffff",
"ffffffffffffffffffffffffffffffff000000000000000000000*      +00000000000000000000000000000000000ffffffffffffffffffffffffffffffff",
"ffffffffffffffffffffffffffffffff000000000000000000000>       :0000000000000000000000000000000000ffffffffffffffffffffffffffffffff",
"ffffffffffffffffffffffffffffffff0000000000000000000002        o100000000000000000000000000000000ffffffffffffffffffffffffffffffff",
"ffffffffffffffffffffffffffffffff0000000000000000000007.         X-600000000000000000000000000000ffffffffffffffffffffffffffffffff",
"ffffffffffffffffffffffffffffffff0000000000000000000000<            %4000000000000000000000000000ffffffffffffffffffffffffffffffff",
"ffffffffffffffffffffffffffffffff00000000000000000000000#             @40000000000000000000000000ffffffffffffffffffffffffffffffff",
"ffffffffffffffffffffffffffffffff000000000000000000000007#              :000000000000000000000000ffffffffffffffffffffffffffffffff",
"ffffffffffffffffffffffffffffffff0000000000000000000000000-              %w0000000000000000000000ffffffffffffffffffffffffffffffff",
"ffffffffffffffffffffffffffffffff000000000000000000000000004#             >0000000000000000000000ffffffffffffffffffffffffffffffff",
"ffffffffffffffffffffffffffffffff00000000000000000000000000006=           X6000000000000000000000ffffffffffffffffffffffffffffffff",
"ffffffffffffffffffffffffffffffff0000000000000000000000000000007,O         *000000000000000000000ffffffffffffffffffffffffffffffff",
"ffffffffffffffffffffffffffffffff00000000000000000000000000000000w1O       #000000000000000000000ffffffffffffffffffffffffffffffff",
"ffffffffffffffffffffffffffffffff00000000000000000000000000000000007+       000000000000000000000ffffffffffffffffffffffffffffffff",
"ffffffffffffffffffffffffffffffff000000000000000000000000000000000002       600000000000000000000ffffffffffffffffffffffffffffffff",
"ffffffffffffffffffffffffffffffff000000000000000000006100000000000002       600000000000000000000ffffffffffffffffffffffffffffffff",
"ffffffffffffffffffffffffffffffff000000000000000000004 o:600w00000w0%       000000000000000000000ffffffffffffffffffffffffffffffff",
"ffffffffffffffffffffffffffffffff000000000000000000004    @-3500063#       +000000000000000000000ffffffffffffffffffffffffffffffff",
"ffffffffffffffffffffffffffffffff000000000000000000004                     ,000000000000000000000ffffffffffffffffffffffffffffffff",
"ffffffffffffffffffffffffffffffff000000000000000000004                    .6000000000000000000000ffffffffffffffffffffffffffffffff",
"ffffffffffffffffffffffffffffffff000000000000000000004                    ,0000000000000000000000ffffffffffffffffffffffffffffffff",
"ffffffffffffffffffffffffffffffff000000000000000000004                   *00000000000000000000000ffffffffffffffffffffffffffffffff",
"ffffffffffffffffffffffffffffffff000000000000000000004                 .>000000000000000000000000ffffffffffffffffffffffffffffffff",
"ffffffffffffffffffffffffffffffff0000000000000000000004*.            .>70000000000000000000000000ffffffffffffffffffffffffffffffff",
"ffffffffffffffffffffffffffffffff0000000000000000000000005>###. .#%>17000000000000000000000000000ffffffffffffffffffffffffffffffff",
"ffffffffffffffffffffffffffffffff0000000000000000000000000000000000000000000000000000000000000000ffffffffffffffffffffffffffffffff",
"ffffffffffffffffffffffffffffffff0000000000000000000000000000000000000000000000000000000000000000ffffffffffffffffffffffffffffffff",
"ffffffffffffffffffffffffffffffff0000000000000000000000000000000000000000000000000000000000000000ffffffffffffffffffffffffffffffff",
"ffffffffffffffffffffffffffffffff0000000000000000000000000000000000000000000000000000000000000000ffffffffffffffffffffffffffffffff",
"ffffffffffffffffffffffffffffffff0000000000000000000000000000000000000000000000000000000000000000ffffffffffffffffffffffffffffffff",
"ffffffffffffffffffffffffffffffff0000000000000000000000000000000000000000000000000000000000000000ffffffffffffffffffffffffffffffff",
"ffffffffffffffffffffffffffffffff0000000000000000000000000000000000000000000000000000000000000000ffffffffffffffffffffffffffffffff",
"ffffffffffffffffffffffffffffffff0000000000000000000000000000000000000000000000000000000000000000ffffffffffffffffffffffffffffffff",
"ffffffffffffffffffffffffffffffff000000000000000000000000000000000000000000000000000000000000000wffffffffffffffffffffffffffffffff",
"ffffffffffffffffffffffffffffffffa00000000000000000000000000000000000000000000000000000000000000affffffffffffffffffffffffffffffff",
"fffffffffffffffffffffffffffffffff00000000000000000000000000000000000000000000000000000000000000fffffffffffffffffffffffffffffffff",
"fffffffffffffffffffffffffffffffffp000000000000000000000000000000000000000000000000000000000000pfffffffffffffffffffffffffffffffff",
"ffffffffffffffffffffffffffffffffff000000000000000000000000000000000000000000000000000000000000ffffffffffffffffffffffffffffffffff",
"fffffffffffffffffffffffffffffffffffr00000000000000000000000000000000000000000000000000000000rfffffffffffffffffffffffffffffffffff",
"fffffffffffffffffffffffffffffffffffffse00000000000000000000000000000000000000000000000000rdfffffffffffffffffffffffffffffffffffff",
"ffffffffffffffffffffffffffffffffffffffffffffffffffffffffffffffffffffffffffffffffffffffffffffffffffffffffffffffffffffffffffffffff",
"ffffffffffffffffffffffffffffffffffffffffffffffffffffffffffffffffffffffffffffffffffffffffffffffffffffffffffffffffffffffffffffffff",
"ffffffffffffffffffffffffffffffffffffffffffffffffffffffffffffffffffffffffffffffffffffffffffffffffffffffffffffffffffffffffffffffff",
"ffffffffffffffffffffffffffffffffffffffffffffffffffffffffffffffffffffffffffffffffffffffffffffffffffffffffffffffffffffffffffffffff",
"ffffffffffffffffffffffffffffffffffffffffffffffffffffffffffffffffffffffffffffffffffffffffffffffffffffffffffffffffffffffffffffffff",
"ffffffffffffffffffffffffffffffffffffffffffffffffffffffffffffffffffffffffffffffffffffffffffffffffffffffffffffffffffffffffffffffff",
"ffffffffffffffffffffffffffffffffffffffffffffffffffffffffffffffffffffffffffffffffffffffffffffffffffffffffffffffffffffffffffffffff",
"ffffffffffffffffffffffffffffffffffffffffffffffffffffffffffffffffffffffffffffffffffffffffffffffffffffffffffffffffffffffffffffffff",
"ffffffffffffffffffffffffffffffffffffffffffffffffffffffffffffffffffffffffffffffffffffffffffffffffffffffffffffffffffffffffffffffff",
"ffffffffffffffffffffffffffffffffffffffffffffffffffffffffffffffffffffffffffffffffffffffffffffffffffffffffffffffffffffffffffffffff",
"ffffffffffffffffffffffffffffffffffffffffffffffffffffffffffffffffffffffffffffffffffffffffffffffffffffffffffffffffffffffffffffffff",
"ffffffffffffffffffffffffffffffffffffffffffffffffffffffffffffffffffffffffffffffffffffffffffffffffffffffffffffffffffffffffffffffff",
"ffffffffffffffffffffffffffffffffffffffffffffffffffffffffffffffffffffffffffffffffffffffffffffffffffffffffffffffffffffffffffffffff",
"ffffffffffffffffffffffffffffffffffffffffffffffffffffffffffffffffffffffffffffffffffffffffffffffffffffffffffffffffffffffffffffffff",
"ffffffffffffffffffffffffffffffffffffffffffffffffffffffffffffffffffffffffffffffffffffffffffffffffffffffffffffffffffffffffffffffff",
"ffffffffffffffffffffffffffffffffffffffffffffffffffffffffffffffffffffffffffffffffffffffffffffffffffffffffffffffffffffffffffffffff",
"ffffffffffffffffffffffffffffffffffffffffffffffffffffffffffffffffffffffffffffffffffffffffffffffffffffffffffffffffffffffffffffffff",
"ffffffffffffffffffffffffffffffffffffffffffffffffffffffffffffffffffffffffffffffffffffffffffffffffffffffffffffffffffffffffffffffff",
"ffffffffffffffffffffffffffffffffffffffffffffffffffffffffffffffffffffffffffffffffffffffffffffffffffffffffffffffffffffffffffffffff",
"ffffffffffffffffffffffffffffffffffffffffffffffffffffffffffffffffffffffffffffffffffffffffffffffffffffffffffffffffffffffffffffffff",
"ffffffffffffffffffffffffffffffffffffffffffffffffffffffffffffffffffffffffffffffffffffffffffffffffffffffffffffffffffffffffffffffff",
"ffffffffffffffffffffffffffffffffffffffffffffffffffffffffffffffffffffffffffffffffffffffffffffffffffffffffffffffffffffffffffffffff",
"ffffffffffffffffffffffffffffffffffffffffffffffffffffffffffffffffffffffffffffffffffffffffffffffffffffffffffffffffffffffffffffffff",
"ffffffffffffffffffffffffffffffffffffffffffffffffffffffffffffffffffffffffffffffffffffffffffffffffffffffffffffffffffffffffffffffff",
"ffffffffffffffffffffffffffffffffffffffffffffffffffffffffffffffffffffffffffffffffffffffffffffffffffffffffffffffffffffffffffffffff",
"ffffffffffffffffffffffffffffffffffffffffffffffffffffffffffffffffffffffffffffffffffffffffffffffffffffffffffffffffffffffffffffffff",
"ffffffffffffffffffffffffffffffffffffffffffffffffffffffffffffffffffffffffffffffffffffffffffffffffffffffffffffffffffffffffffffffff",
"ffffffffffffffffffffffffffffffffffffffffffffffffffffffffffffffffffffffffffffffffffffffffffffffffffffffffffffffffffffffffffffffff",
"ffffffffffffffffffffffffffffffffffffffffffffffffffffffffffffffffffffffffffffffffffffffffffffffffffffffffffffffffffffffffffffffff",
"ffffffffffffffffffffffffffffffffffffffffffffffffffffffffffffffffffffffffffffffffffffffffffffffffffffffffffffffffffffffffffffffff",
"ffffffffffffffffffffffffffffffffffffffffffffffffffffffffffffffffffffffffffffffffffffffffffffffffffffffffffffffffffffffffffffffff",
"ffffffffffffffffffffffffffffffffffffffffffffffffffffffffffffffffffffffffffffffffffffffffffffffffffffffffffffffffffffffffffffffff"
};
