/* XPM */
static char *f3c8563f6804476bde9f221af9edb9aa[] = {
/* columns rows colors chars-per-pixel */
"128 128 27 1 ",
"  c #4C4C4C",
". c gray30",
"X c gray31",
"o c #545353",
"O c #555454",
"+ c #5B5B5B",
"@ c #5C5B5B",
"# c #636262",
"$ c #646363",
"% c #6C6A6A",
"& c #737171",
"* c #7B7878",
"= c #838080",
"- c #8A8787",
"; c #938F8F",
": c #9B9797",
"> c #A39E9E",
", c #ABA5A5",
"< c #B2ACAC",
"1 c #BAB4B4",
"2 c #C2BCBC",
"3 c #C9C2C2",
"4 c #C9C3C3",
"5 c #CAC2C2",
"6 c #CAC3C3",
"7 c #CBC3C3",
"8 c None",
/* pixels */
"88888888888888888888888888888888888888888888888888888888888888888888888888888888888888888888888888888888888888888888888888888888",
"88888888888888888888888888888888888888888888888888888888888888888888888888888888888888888888888888888888888888888888888888888888",
"88888888888888888888888888888888888888888888888888888888888888888888888888888888888888888888888888888888888888888888888888888888",
"88888888888888888888888888888888888888888888888888888888888888888888888888888888888888888888888888888888888888888888888888888888",
"88888888888888888888888888888888888888888888888888888888888888888888888888888888888888888888888888888888888888888888888888888888",
"88888888888888888888888888888888888888888888888888888888888888888888888888888888888888888888888888888888888888888888888888888888",
"88888888888888888888888888888888888888888888888888888888888888888888888888888888888888888888888888888888888888888888888888888888",
"88888888888888888888888888888888888888888888888888888888888888888888888888888888888888888888888888888888888888888888888888888888",
"88888888888888888888888888888888888888888888888888888888888888888888888888888888888888888888888888888888888888888888888888888888",
"88888888888888888888888888888888888888888888888888888888888888888888888888888888888888888888888888888888888888888888888888888888",
"88888888888888888888888888888888888888888888888888888888888888888888888888888888888888888888888888888888888888888888888888888888",
"88888888888888888888888888888888888888888888888888888888888888888888888888888888888888888888888888888888888888888888888888888888",
"88888888888888888888888888888888888888888888888888888888888888888888888888888888888888888888888888888888888888888888888888888888",
"88888888888888888888888888888888888888888888888888888888888888888888888888888888888888888888888888888888888888888888888888888888",
"88888888888888888888888888888888888888888888888888888888888888888888888888888888888888888888888888888888888888888888888888888888",
"88888888888888888888888888888888888888888888888888888888888888888888888888888888888888888888888888888888888888888888888888888888",
"88888888888888888888888888888888888888888888888888888888888888888888888888888888888888888888888888888888888888888888888888888888",
"88888888888888888888888888888888888888888888888888888888888888888888888888888888888888888888888888888888888888888888888888888888",
"88888888888888888888888888888888888888888888888888888888888888888888888888888888888888888888888888888888888888888888888888888888",
"88888888888888888888888888888888888888888888888888888888888888888888888888888888888888888888888888888888888888888888888888888888",
"88888888888888888888888888888888888888888888888888888888888888888888888888888888888888888888888888888888888888888888888888888888",
"88888888888888888888888888888888888888888888888888888888888888888888888888888888888888888888888888888888888888888888888888888888",
"88888888888888888888888888888888888888888888888888888888888888888888888888888888888888888888888888888888888888888888888888888888",
"88888888888888888888888888888888888888888888888888888888888888888888888888888888888888888888888888888888888888888888888888888888",
"88888888888888888888888888888888888888888888888888888888888888888888888888888888888888888888888888888888888888888888888888888888",
"88888888888888888888888888888888888888888888888888888888888888888888888888888888888888888888888888888888888888888888888888888888",
"88888888888888888888888888888888888888888888888888888888888888888888888888888888888888888888888888888888888888888888888888888888",
"88888888888888888888888888888888888888888888888888888888888888888888888888888888888888888888888888888888888888888888888888888888",
"88888888888888888888888888888888888888888888888888888888888888888888888888888888888888888888888888888888888888888888888888888888",
"88888888888888888888888888888888888888888888888888888888888888888888888888888888888888888888888888888888888888888888888888888888",
"88888888888888888888888888888888888888888888888888888888888888888888888888888888888888888888888888888888888888888888888888888888",
"88888888888888888888888888888888888888888888888888888888888888888888888888888888888888888888888888888888888888888888888888888888",
"88888888888888888888888888888888888888337747474747474747474747477474747474747474747474743388888888888888888888888888888888888888",
"88888888888888888888888888888888888347777774747474747474747474744747474747474747474747477777388888888888888888888888888888888888",
"88888888888888888888888888888888883774744747474747474747474747477474747474747474747474747774778888888888888888888888888888888888",
"88888888888888888888888888888888877747477474747474747474747474744747474747474747474747474747777888888888888888888888888888888888",
"88888888888888888888888888888888837474744747474747474747474747477474747474747474747474747474744888888888888888888888888888888888",
"88888888888888888888888888888888774747477474747474747474747474744747474747474747474747474747477788888888888888888888888888888888",
"88888888888888888888888888888888777474744747474747474747474747477474747474747474747474747474747488888888888888888888888888888888",
"88888888888888888888888888888888374747477474747474747474747474744747474747474747474747474747474488888888888888888888888888888888",
"88888888888888888888888888888888474747474747474747474747747474747474747474747474747474744747474788888888888888888888888888888888",
"88888888888888888888888888888888747474747474747474747474474747474747474747474747474747477474747488888888888888888888888888888888",
"88888888888888888888888888888888474747474747474747474747747474747474747474747474747474744747474788888888888888888888888888888888",
"88888888888888888888888888888888747474747474747474747474474747474747474747474747474747477474747488888888888888888888888888888888",
"88888888888888888888888888888888474747474747474747477474747474744747747474744747747474744747474788888888888888888888888888888888",
"88888888888888888888888888888888747474747474747474744747474744477474474747477474474747477474747488888888888888888888888888888888",
"88888888888888888888888888888888474747474747774777747474747444444777747474744777747447744747474788888888888888888888888888888888",
"888888888888888888888888888888887474747474-X      :747474747*X  X  >474747474: X  X  ;477474747488888888888888888888888888888888",
"888888888888888888888888888888884747474747<  X  X *747474744OX X   *747474747&X  X   <474747474788888888888888888888888888888888",
"8888888888888888888888888888888874747474744o  X X o77474747,XX X XXo474747474o X X Xo4747474747488888888888888888888888888888888",
"8888888888888888888888888888888847474747474&XX     <4747474=       X,4747474<  X  X &4474747474788888888888888888888888888888888",
"8888888888888888888888888888888874747474747:   X XX;7474744+ XX XX  =7474747;X  X   :4447474747488888888888888888888888888888888",
"88888888888888888888888888888888474747477471 XX   X&4747771XX     X +7744747&  X X X17474747474788888888888888888888888888888888",
"88888888888888888888888888888888747474744747+   XX o747477;X  XX X   <477474oX   X +44747474747488888888888888888888888888888888",
"88888888888888888888888888888888474747477474*  X    <74777&  X    XXX;74477<X X   X=74474747474788888888888888888888888888888888",
"88888888888888888888888888888888747474744747>X X XX ;47471 X  X X    #47744;  X XXX>47747474747488888888888888888888888888888888",
"888888888888888888888888888888884747474747472     X &7474> X X   XX XX17477&  X   X177477474747488888888888888888888888888888888",
"888888888888888888888888888888887474747474744#X X X o4747*   X X     X:7744oX X X #777744747474788888888888888888888888888888888",
"888888888888888888888888888888884747474747477=   X  X,477oX   X X  X X&747,X X  X -477477474747488888888888888888888888888888888",
"888888888888888888888888888888887474747474744,XX   X -74< X X   X  X  X174-    X  ,777744747474788888888888888888888888888888888",
"8888888888888888888888888888888847474747474747  X  X %47-X  X  X X  X  :47%XXX  Xo4474747474747488888888888888888888888888888888",
"8888888888888888888888888888888874747474747474%XX  XX 74# X X  %o  X  X*74     X &4747474747474788888888888888888888888888888888",
"8888888888888888888888888888888847474747474747;       ,1XX     ;*  X XXo4,X    X ;7474747474747788888888888888888888888888888888",
"8888888888888888888888888888888874747474747474<  XX  X-:   X XX1>X   X  >-  XX  X<4747474747477788888888888888888888888888888888",
"88888888888888888888888888888888747474747474747o   X X%&X   X +41XXXX   =%X   X +47474747474747488888888888888888888888888888888",
"88888888888888888888888888888888474747474747474&XX     X  XX  =77& X  X +X  X X *74747474747474788888888888888888888888888888888",
"88888888888888888888888888888888747474747474744:  X X    X   X>44;X  X X  XX X  >47474747474747488888888888888888888888888888888",
"888888888888888888888888888888884747474747474771 X  X X   X  o7441X  X  X      X174747474747474788888888888888888888888888888888",
"888888888888888888888888888888887474747474747474+X   X  XX  X&4744#X  X X   XX #747474747474747488888888888888888888888888888888",
"888888888888888888888888888888884747474747474747=  X X X   X :7474-  X    XX   =474747474747474788888888888888888888888888888888",
"888888888888888888888888888888887474747474747474>  X  X    X 17447<   XX X  X X>747474747474747488888888888888888888888888888888",
"8888888888888888888888888888888847474747474747472X  X   XX  #747744+X     X    7474747474747474788888888888888888888888888888888",
"8888888888888888888888888888888874747474747474747# X   X  XX-774747*   XX   XX%7747474747474747488888888888888888888888888888888",
"8888888888888888888888888888888847474747474747477- X X  X   <447474>XX  X X   ;4474747474747474788888888888888888888888888888888",
"8888888888888888888888888888888874747474747474744,   XXXX  +74747474  X  X    <7747474747474747488888888888888888888888888888888",
"88888888888888888888888888888888474747474747474774X       X*47474747&X     XXo74474747474747474788888888888888888888888888888888",
"88888888888888888888888888888888747474747474747474& XX    X>74747474: XX   X &77747474747474747488888888888888888888888888888888",
"88888888888888888888888888888888474747474747474747;   X X  2474747472    X   :74474747474747474788888888888888888888888888888888",
"88888888888888888888888888888888747474747474747474<X X  X &4747474744#   XX X147747474747474747488888888888888888888888888888888",
"888888888888888888888888888888884747474747474747477o   X  ;7474747474;XX    +474474747474747474788888888888888888888888888888888",
"888888888888888888888888888888887474747474747474747*  X  X14747474747<  X  X*474747474747474747488888888888888888888888888888888",
"88888888888888888888888888888888474747474747474747477774474447474747477774474447474747474747474788888888888888888888888888888888",
"88888888888888888888888888888888747474747474747474744747747474747474474747477474747474747474747488888888888888888888888888888888",
"88888888888888888888888888888888474747474747474747477474474747474747747474744747474747474747474788888888888888888888888888888888",
"88888888888888888888888888888888747474747474747474747474747474744747474747474747747474747474747488888888888888888888888888888888",
"88888888888888888888888888888888474747474747474747474747474747477474747474747474474747474747474788888888888888888888888888888888",
"88888888888888888888888888888888747474747474747474747474747474744747474747474747747474747474747488888888888888888888888888888888",
"88888888888888888888888888888888474747474747474747474747474747477474747474747474474747474747477388888888888888888888888888888888",
"88888888888888888888888888888888474747477474747474747474747474744747474747474747747474747474474488888888888888888888888888888888",
"88888888888888888888888888888888447474744747474747474747474747477474747474747474474747474747747488888888888888888888888888888888",
"88888888888888888888888888888888774747477474747474747474747474744747474747474747747474747474777788888888888888888888888888888888",
"88888888888888888888888888888888847474744747474747474747474747477474747474747474474747474747773888888888888888888888888888888888",
"88888888888888888888888888888888837747477474747474747474747474744747474747474747747474747474747888888888888888888888888888888888",
"88888888888888888888888888888888884777744747474747474747474747477474747474747474474747474777738888888888888888888888888888888888",
"88888888888888888888888888888888888377747474747474747474747474774747474747474747747474747777488888888888888888888888888888888888",
"88888888888888888888888888888888888888474747474747474747474747777474747474747474474747474388888888888888888888888888888888888888",
"88888888888888888888888888888888888888888888888888888888888888888888888888888888888888888888888888888888888888888888888888888888",
"88888888888888888888888888888888888888888888888888888888888888888888888888888888888888888888888888888888888888888888888888888888",
"88888888888888888888888888888888888888888888888888888888888888888888888888888888888888888888888888888888888888888888888888888888",
"88888888888888888888888888888888888888888888888888888888888888888888888888888888888888888888888888888888888888888888888888888888",
"88888888888888888888888888888888888888888888888888888888888888888888888888888888888888888888888888888888888888888888888888888888",
"88888888888888888888888888888888888888888888888888888888888888888888888888888888888888888888888888888888888888888888888888888888",
"88888888888888888888888888888888888888888888888888888888888888888888888888888888888888888888888888888888888888888888888888888888",
"88888888888888888888888888888888888888888888888888888888888888888888888888888888888888888888888888888888888888888888888888888888",
"88888888888888888888888888888888888888888888888888888888888888888888888888888888888888888888888888888888888888888888888888888888",
"88888888888888888888888888888888888888888888888888888888888888888888888888888888888888888888888888888888888888888888888888888888",
"88888888888888888888888888888888888888888888888888888888888888888888888888888888888888888888888888888888888888888888888888888888",
"88888888888888888888888888888888888888888888888888888888888888888888888888888888888888888888888888888888888888888888888888888888",
"88888888888888888888888888888888888888888888888888888888888888888888888888888888888888888888888888888888888888888888888888888888",
"88888888888888888888888888888888888888888888888888888888888888888888888888888888888888888888888888888888888888888888888888888888",
"88888888888888888888888888888888888888888888888888888888888888888888888888888888888888888888888888888888888888888888888888888888",
"88888888888888888888888888888888888888888888888888888888888888888888888888888888888888888888888888888888888888888888888888888888",
"88888888888888888888888888888888888888888888888888888888888888888888888888888888888888888888888888888888888888888888888888888888",
"88888888888888888888888888888888888888888888888888888888888888888888888888888888888888888888888888888888888888888888888888888888",
"88888888888888888888888888888888888888888888888888888888888888888888888888888888888888888888888888888888888888888888888888888888",
"88888888888888888888888888888888888888888888888888888888888888888888888888888888888888888888888888888888888888888888888888888888",
"88888888888888888888888888888888888888888888888888888888888888888888888888888888888888888888888888888888888888888888888888888888",
"88888888888888888888888888888888888888888888888888888888888888888888888888888888888888888888888888888888888888888888888888888888",
"88888888888888888888888888888888888888888888888888888888888888888888888888888888888888888888888888888888888888888888888888888888",
"88888888888888888888888888888888888888888888888888888888888888888888888888888888888888888888888888888888888888888888888888888888",
"88888888888888888888888888888888888888888888888888888888888888888888888888888888888888888888888888888888888888888888888888888888",
"88888888888888888888888888888888888888888888888888888888888888888888888888888888888888888888888888888888888888888888888888888888",
"88888888888888888888888888888888888888888888888888888888888888888888888888888888888888888888888888888888888888888888888888888888",
"88888888888888888888888888888888888888888888888888888888888888888888888888888888888888888888888888888888888888888888888888888888",
"88888888888888888888888888888888888888888888888888888888888888888888888888888888888888888888888888888888888888888888888888888888",
"88888888888888888888888888888888888888888888888888888888888888888888888888888888888888888888888888888888888888888888888888888888",
"88888888888888888888888888888888888888888888888888888888888888888888888888888888888888888888888888888888888888888888888888888888",
"88888888888888888888888888888888888888888888888888888888888888888888888888888888888888888888888888888888888888888888888888888888"
};
